<svg width="26" height="26" viewBox="0 0 26 26" fill="none" xmlns="http://www.w3.org/2000/svg">
<path d="M13 0C16.7917 0 18.4167 2.16669 17.8698 6.71443C18.3584 6.99462 18.6875 7.52139 18.6875 8.125C18.6875 8.86361 18.1947 9.48713 17.52 9.68473C17.2381 10.6894 16.8003 11.5788 16.25 12.2903V15.7083C18.0556 16.0694 19.5 16.25 21.6667 17.3333C23.8333 18.4167 24.5556 19.4098 26 20.8542V26H0V20.8542C1.44444 19.4098 2.16669 18.4167 4.33331 17.3333C6.5 16.25 7.94444 16.0694 9.75 15.7083V12.2903C9.19969 11.5788 8.76193 10.6894 8.48004 9.68473C7.80527 9.48713 7.3125 8.86361 7.3125 8.125C7.3125 7.52139 7.64161 6.99462 8.1302 6.71443C7.58331 2.16669 9.20831 0 13 0Z" fill="black"/>
</svg>
