<svg width="25" height="26" viewBox="0 0 25 26" fill="none" xmlns="http://www.w3.org/2000/svg">
<path fill-rule="evenodd" clip-rule="evenodd" d="M18.4812 15.0616C18.1738 14.8931 16.662 14.0776 16.3787 13.9623C16.0954 13.847 15.8886 13.7869 15.6682 14.0932C15.4475 14.3981 14.8204 15.0812 14.6303 15.2835C14.4394 15.4859 14.2558 15.5047 13.9484 15.3359C13.641 15.1679 12.6435 14.7987 11.4874 13.6872C10.5872 12.8222 9.99692 11.7728 9.8256 11.4522C9.65429 11.1322 9.82436 10.9686 9.98705 10.8186C10.1334 10.6833 10.3142 10.4642 10.4776 10.2872C10.6407 10.1101 10.6984 9.98179 10.8104 9.7766C10.9228 9.57133 10.8774 9.38653 10.8051 9.22712C10.7323 9.06726 10.1637 7.50239 9.9262 6.86549C9.68863 6.22898 9.42377 6.32339 9.241 6.31641C9.05831 6.30951 8.85022 6.27556 8.64127 6.2678C8.43239 6.26003 8.09022 6.32543 7.79141 6.62878C7.49253 6.93088 6.6549 7.65858 6.59727 9.20015C6.53964 10.7413 7.60581 12.2732 7.75463 12.4874C7.90338 12.7024 9.79126 16.0435 12.9288 17.4179C16.0668 18.7915 16.0827 18.3729 16.6588 18.3418C17.2352 18.3116 18.5409 17.6534 18.8295 16.9319C19.1181 16.2107 19.1414 15.5832 19.0679 15.4495C18.9942 15.3162 18.7883 15.2296 18.4812 15.0616ZM12.7269 22.4896C10.6518 22.4896 8.71936 21.8669 7.10582 20.8004L3.17965 22.0571L4.45596 18.2633C3.23281 16.5787 2.51045 14.5089 2.51045 12.2732C2.51045 6.63898 7.09358 2.05591 12.7269 2.05591C18.3606 2.05591 22.9437 6.63898 22.9437 12.2732C22.9437 17.9064 18.3606 22.4896 12.7269 22.4896ZM12.7269 0C5.94891 0 0.454208 5.49478 0.454208 12.2732C0.454208 14.5918 1.09802 16.7602 2.21532 18.6104L0 25.1946L6.79516 23.0194C8.55338 23.9915 10.5753 24.5459 12.7269 24.5459C19.5048 24.5459 25 19.0507 25 12.2732C25 5.49478 19.5048 0 12.7269 0Z" fill="#231F20"/>
</svg>
