<svg width="280" height="290" viewBox="0 0 374 383" fill="none" xmlns="http://www.w3.org/2000/svg">
<path d="M187 0C241.542 0 264.917 31.8503 257.05 98.7021C264.078 102.821 268.812 110.564 268.812 119.437C268.812 130.295 261.724 139.461 252.018 142.365C247.963 157.134 241.666 170.209 233.75 180.668V230.912C259.722 236.221 280.5 238.875 311.667 254.799C342.833 270.725 353.222 285.323 374 306.556V382.2H0V306.556C20.7777 285.323 31.167 270.725 62.333 254.799C93.5 238.875 114.278 236.221 140.25 230.912V180.668C132.334 170.209 126.037 157.134 121.982 142.365C112.276 139.461 105.188 130.295 105.188 119.437C105.188 110.564 109.922 102.821 116.95 98.7021C109.083 31.8503 132.458 0 187 0ZM159.729 254.799L175.312 286.65H198.688L214.271 254.799H159.729ZM171.417 302.574L187 366.275L202.583 302.574H171.417Z" fill="black"/>
</svg>
